<svg width="148" height="148" viewBox="0 0 148 148" fill="none" xmlns="http://www.w3.org/2000/svg">
<path d="M73.9992 0.200195C33.3108 0.200195 0.199219 33.3118 0.199219 74.0002C0.199219 114.689 33.3108 147.8 73.9992 147.8C114.688 147.8 147.799 114.689 147.799 74.0002C147.799 33.3118 114.688 0.200195 73.9992 0.200195ZM73.9992 141.24C36.9188 141.24 6.75922 111.081 6.75922 74.0002C6.75922 36.9198 36.9188 6.7602 73.9992 6.7602C111.08 6.7602 141.239 36.9198 141.239 74.0002C141.239 111.081 111.08 141.24 73.9992 141.24ZM110.752 48.7278C112.031 50.007 112.031 52.0898 110.752 53.369L64.8316 99.289C64.192 99.9122 63.3556 100.24 62.5192 100.24C61.6828 100.24 60.8464 99.9122 60.2068 99.2726L37.2468 76.3126C35.9676 75.0334 35.9676 72.9506 37.2468 71.6714C38.526 70.3922 40.6088 70.3922 41.888 71.6714L62.5192 92.319L106.127 48.7114C107.406 47.4322 109.472 47.4322 110.752 48.7278Z" fill="#80C300"/>
</svg>
